<?xml version="1.0" encoding="UTF-8"?>
<!DOCTYPE svg PUBLIC "-//W3C//DTD SVG 1.1//EN" "http://www.w3.org/Graphics/SVG/1.1/DTD/svg11.dtd">
<svg version="1.1" xmlns="http://www.w3.org/2000/svg" xmlns:xlink="http://www.w3.org/1999/xlink" x="0" y="0" width="302.051" height="37.95" viewBox="0, 0, 1006.837, 126.5">
  <g id="Layer_1" transform="translate(0, -674.5)">
    <g>
      <g>
        <path d="M456.5,720.5 L504.5,720.5 L504.5,792.5 L456.5,792.5 L456.5,720.5 z" fill="#FFFFFF"/>
        <path d="M456.5,720.5 L504.5,720.5 L504.5,792.5 L456.5,792.5 L456.5,720.5 z" fill-opacity="0" stroke="#000000" stroke-width="4"/>
      </g>
      <g>
        <path d="M504.5,720.5 L552.5,720.5 L552.5,792.5 L504.5,792.5 L504.5,720.5 z" fill="#FFFFFF"/>
        <path d="M504.5,720.5 L552.5,720.5 L552.5,792.5 L504.5,792.5 L504.5,720.5 z" fill-opacity="0" stroke="#000000" stroke-width="4"/>
      </g>
      <g>
        <path d="M552.5,720.5 L600.5,720.5 L600.5,792.5 L552.5,792.5 L552.5,720.5 z" fill="#FFFFFF"/>
        <path d="M552.5,720.5 L600.5,720.5 L600.5,792.5 L552.5,792.5 L552.5,720.5 z" fill-opacity="0" stroke="#000000" stroke-width="4"/>
      </g>
      <g>
        <path d="M600.5,720.5 L648.5,720.5 L648.5,792.5 L600.5,792.5 L600.5,720.5 z" fill="#FFFFFF"/>
        <path d="M600.5,720.5 L648.5,720.5 L648.5,792.5 L600.5,792.5 L600.5,720.5 z" fill-opacity="0" stroke="#000000" stroke-width="4"/>
      </g>
      <g>
        <path d="M648.5,720.5 L696.5,720.5 L696.5,792.5 L648.5,792.5 L648.5,720.5 z" fill="#FFFFFF"/>
        <path d="M648.5,720.5 L696.5,720.5 L696.5,792.5 L648.5,792.5 L648.5,720.5 z" fill-opacity="0" stroke="#000000" stroke-width="4"/>
      </g>
      <g>
        <path d="M696.5,720.5 L744.5,720.5 L744.5,792.5 L696.5,792.5 L696.5,720.5 z" fill="#FFFFFF"/>
        <path d="M696.5,720.5 L744.5,720.5 L744.5,792.5 L696.5,792.5 L696.5,720.5 z" fill-opacity="0" stroke="#000000" stroke-width="4"/>
      </g>
      <g>
        <path d="M744.5,720.5 L792.5,720.5 L792.5,792.5 L744.5,792.5 L744.5,720.5 z" fill="#FFFFFF"/>
        <path d="M744.5,720.5 L792.5,720.5 L792.5,792.5 L744.5,792.5 L744.5,720.5 z" fill-opacity="0" stroke="#000000" stroke-width="4"/>
      </g>
      <g>
        <path d="M792.5,720.5 L840.5,720.5 L840.5,792.5 L792.5,792.5 L792.5,720.5 z" fill="#FFFFFF"/>
        <path d="M792.5,720.5 L840.5,720.5 L840.5,792.5 L792.5,792.5 L792.5,720.5 z" fill-opacity="0" stroke="#000000" stroke-width="4"/>
      </g>
    </g>
    <g>
      <text transform="matrix(1, 0, 0, 1, 488.511, 696)">
        <tspan x="-32.511" y="11.5" font-family="Menlo-Bold" font-size="36" fill="#FFFFFF">MSB</tspan>
      </text>
      <path d="M457.512,681.256 L463.699,681.256 L466.828,692.77 L469.939,681.256 L476.162,681.256 L476.162,707.5 L471.697,707.5 L471.697,686.477 L468.92,697.955 L464.789,697.955 L461.977,686.477 L461.977,707.5 L457.512,707.5 z M486.639,695.986 Q482.719,694.492 481.33,692.849 Q479.941,691.205 479.941,688.428 Q479.941,684.859 482.227,682.82 Q484.512,680.781 488.502,680.781 Q490.312,680.781 492.123,681.194 Q493.934,681.607 495.709,682.416 L495.709,687.479 Q494.039,686.301 492.316,685.686 Q490.594,685.07 488.906,685.07 Q487.025,685.07 486.023,685.826 Q485.021,686.582 485.021,687.988 Q485.021,689.078 485.751,689.79 Q486.48,690.502 488.801,691.363 L491.033,692.207 Q494.197,693.367 495.691,695.283 Q497.186,697.199 497.186,700.117 Q497.186,704.09 494.839,706.05 Q492.492,708.01 487.746,708.01 Q485.795,708.01 483.835,707.544 Q481.875,707.078 480.047,706.164 L480.047,700.803 Q482.121,702.279 484.063,703 Q486.006,703.721 487.904,703.721 Q489.82,703.721 490.875,702.851 Q491.93,701.98 491.93,700.416 Q491.93,699.238 491.227,698.351 Q490.523,697.463 489.188,696.953 z M506.555,695.582 L506.555,703.352 L510,703.352 Q512.479,703.352 513.472,702.508 Q514.465,701.664 514.465,699.572 Q514.465,697.445 513.428,696.514 Q512.391,695.582 510,695.582 z M506.555,685.352 L506.555,691.451 L510,691.451 Q511.969,691.451 512.804,690.748 Q513.639,690.045 513.639,688.428 Q513.639,686.811 512.786,686.081 Q511.934,685.352 510,685.352 z M501.545,681.221 L510,681.221 Q514.377,681.221 516.583,682.882 Q518.789,684.543 518.789,687.848 Q518.789,690.379 517.488,691.803 Q516.188,693.227 513.674,693.455 Q516.68,693.754 518.2,695.477 Q519.721,697.199 519.721,700.293 Q519.721,704.09 517.436,705.795 Q515.15,707.5 510,707.5 L501.545,707.5 z" fill="#000000"/>
    </g>
    <g>
      <text transform="matrix(1, 0, 0, 1, 812.511, 696)">
        <tspan x="-32.511" y="11.5" font-family="Menlo-Bold" font-size="36" fill="#FFFFFF">LSB</tspan>
      </text>
      <path d="M783.955,707.5 L783.955,681.256 L789.141,681.256 L789.141,702.93 L800.232,702.93 L800.232,707.5 z M810.639,695.986 Q806.719,694.492 805.33,692.849 Q803.941,691.205 803.941,688.428 Q803.941,684.859 806.227,682.82 Q808.512,680.781 812.502,680.781 Q814.312,680.781 816.123,681.194 Q817.934,681.607 819.709,682.416 L819.709,687.479 Q818.039,686.301 816.316,685.686 Q814.594,685.07 812.906,685.07 Q811.025,685.07 810.023,685.826 Q809.021,686.582 809.021,687.988 Q809.021,689.078 809.751,689.79 Q810.48,690.502 812.801,691.363 L815.033,692.207 Q818.197,693.367 819.691,695.283 Q821.186,697.199 821.186,700.117 Q821.186,704.09 818.839,706.05 Q816.492,708.01 811.746,708.01 Q809.795,708.01 807.835,707.544 Q805.875,707.078 804.047,706.164 L804.047,700.803 Q806.121,702.279 808.063,703 Q810.006,703.721 811.904,703.721 Q813.82,703.721 814.875,702.851 Q815.93,701.98 815.93,700.416 Q815.93,699.238 815.227,698.351 Q814.523,697.463 813.188,696.953 z M830.555,695.582 L830.555,703.352 L834,703.352 Q836.479,703.352 837.472,702.508 Q838.465,701.664 838.465,699.572 Q838.465,697.445 837.428,696.514 Q836.391,695.582 834,695.582 z M830.555,685.352 L830.555,691.451 L834,691.451 Q835.969,691.451 836.804,690.748 Q837.639,690.045 837.639,688.428 Q837.639,686.811 836.786,686.081 Q835.934,685.352 834,685.352 z M825.545,681.221 L834,681.221 Q838.377,681.221 840.583,682.882 Q842.789,684.543 842.789,687.848 Q842.789,690.379 841.488,691.803 Q840.188,693.227 837.674,693.455 Q840.68,693.754 842.2,695.477 Q843.721,697.199 843.721,700.293 Q843.721,704.09 841.436,705.795 Q839.15,707.5 834,707.5 L825.545,707.5 z" fill="#000000"/>
    </g>
    <g>
      <g>
        <path d="M264.5,720.5 L336.5,720.5 L336.5,792.5 L264.5,792.5 L264.5,720.5 z" fill="#FFFFFF"/>
        <path d="M264.5,720.5 L336.5,720.5 L336.5,792.5 L264.5,792.5 L264.5,720.5 z" fill-opacity="0" stroke="#000000" stroke-width="4"/>
      </g>
      <g>
        <text transform="matrix(1, 0, 0, 1, 300, 756)">
          <tspan x="-18.062" y="20" font-family="Menlo-Bold" font-size="60" fill="#FFFFFF">C</tspan>
        </text>
        <path d="M313.608,774.74 Q311.558,775.795 309.302,776.322 Q307.046,776.85 304.556,776.85 Q295.708,776.85 291.05,771.02 Q286.392,765.189 286.392,754.174 Q286.392,743.129 291.05,737.299 Q295.708,731.469 304.556,731.469 Q307.046,731.469 309.331,731.996 Q311.616,732.523 313.608,733.578 L313.608,743.188 Q311.382,741.137 309.287,740.185 Q307.192,739.232 304.966,739.232 Q300.22,739.232 297.803,742.997 Q295.386,746.762 295.386,754.174 Q295.386,761.557 297.803,765.321 Q300.22,769.086 304.966,769.086 Q307.192,769.086 309.287,768.134 Q311.382,767.182 313.608,765.131 z" fill="#000000"/>
      </g>
    </g>
    <g>
      <text transform="matrix(1, 0, 0, 1, 85.918, 756)">
        <tspan x="-54.185" y="17.5" font-family="Menlo-Bold" font-size="60" fill="#FFFFFF">ASL</tspan>
      </text>
      <path d="M49.781,737.67 L45.708,755.57 L53.882,755.57 z M44.507,729.76 L55.083,729.76 L66.89,773.5 L58.248,773.5 L55.552,762.689 L43.98,762.689 L41.343,773.5 L32.701,773.5 z M82.798,754.311 Q76.265,751.82 73.951,749.081 Q71.636,746.342 71.636,741.713 Q71.636,735.766 75.445,732.367 Q79.253,728.969 85.904,728.969 Q88.921,728.969 91.939,729.657 Q94.957,730.346 97.916,731.693 L97.916,740.131 Q95.132,738.168 92.261,737.143 Q89.39,736.117 86.578,736.117 Q83.443,736.117 81.773,737.377 Q80.103,738.637 80.103,740.98 Q80.103,742.797 81.319,743.983 Q82.535,745.17 86.402,746.605 L90.123,748.012 Q95.396,749.945 97.886,753.139 Q100.376,756.332 100.376,761.195 Q100.376,767.816 96.465,771.083 Q92.554,774.35 84.644,774.35 Q81.392,774.35 78.125,773.573 Q74.859,772.797 71.812,771.273 L71.812,762.338 Q75.269,764.799 78.506,766 Q81.744,767.201 84.908,767.201 Q88.101,767.201 89.859,765.751 Q91.617,764.301 91.617,761.693 Q91.617,759.73 90.445,758.251 Q89.273,756.771 87.046,755.922 z M110.572,773.5 L110.572,729.76 L119.214,729.76 L119.214,765.883 L137.701,765.883 L137.701,773.5 z" fill="#000000"/>
    </g>
    <g>
      <text transform="matrix(1, 0, 0, 1, 971.418, 756)">
        <tspan x="-18.062" y="20" font-family="Menlo-Bold" font-size="60" fill="#FFFFFF">0</tspan>
      </text>
      <path d="M956.96,754.174 Q956.96,742.807 960.564,737.138 Q964.167,731.469 971.404,731.469 Q978.669,731.469 982.273,737.123 Q985.876,742.777 985.876,754.174 Q985.876,765.541 982.273,771.195 Q978.669,776.85 971.404,776.85 Q964.167,776.85 960.564,771.181 Q956.96,765.512 956.96,754.174 z M967.039,765.863 Q968.416,769.525 971.404,769.525 Q974.421,769.525 975.798,765.863 Q977.175,762.201 977.175,754.174 Q977.175,751.127 976.97,748.725 L966.746,765.014 Q966.892,765.482 967.039,765.863 z M971.404,738.793 Q968.416,738.793 967.039,742.455 Q965.662,746.117 965.662,754.174 Q965.662,756.664 965.779,758.715 L975.857,742.631 Q975.828,742.543 975.798,742.455 Q974.421,738.793 971.404,738.793 z" fill="#000000"/>
    </g>
    <g>
      <path d="M936.5,756.5 L880.9,756.5" fill-opacity="0" stroke="#000000" stroke-width="4"/>
      <path d="M880.9,751.7 L868.1,756.5 L880.9,761.3 z" fill="#000000" fill-opacity="1" stroke="#000000" stroke-width="4" stroke-opacity="1"/>
    </g>
    <g>
      <path d="M432.5,756.5 L376.9,756.5" fill-opacity="0" stroke="#000000" stroke-width="4"/>
      <path d="M376.9,751.7 L364.1,756.5 L376.9,761.3 z" fill="#000000" fill-opacity="1" stroke="#000000" stroke-width="4" stroke-opacity="1"/>
    </g>
  </g>
</svg>
