<?xml version="1.0" encoding="UTF-8"?>
<!DOCTYPE svg PUBLIC "-//W3C//DTD SVG 1.1//EN" "http://www.w3.org/Graphics/SVG/1.1/DTD/svg11.dtd">
<svg version="1.1" xmlns="http://www.w3.org/2000/svg" xmlns:xlink="http://www.w3.org/1999/xlink" x="0" y="0" width="294.3" height="47.85" viewBox="0, 0, 981, 159.5">
  <g id="Layer_1" transform="translate(0, -471)">
    <g>
      <g>
        <path d="M456.5,550 L504.5,550 L504.5,622 L456.5,622 L456.5,550 z" fill="#FFFFFF"/>
        <path d="M456.5,550 L504.5,550 L504.5,622 L456.5,622 L456.5,550 z" fill-opacity="0" stroke="#000000" stroke-width="4"/>
      </g>
      <g>
        <path d="M504.5,550 L552.5,550 L552.5,622 L504.5,622 L504.5,550 z" fill="#FFFFFF"/>
        <path d="M504.5,550 L552.5,550 L552.5,622 L504.5,622 L504.5,550 z" fill-opacity="0" stroke="#000000" stroke-width="4"/>
      </g>
      <g>
        <path d="M552.5,550 L600.5,550 L600.5,622 L552.5,622 L552.5,550 z" fill="#FFFFFF"/>
        <path d="M552.5,550 L600.5,550 L600.5,622 L552.5,622 L552.5,550 z" fill-opacity="0" stroke="#000000" stroke-width="4"/>
      </g>
      <g>
        <path d="M600.5,550 L648.5,550 L648.5,622 L600.5,622 L600.5,550 z" fill="#FFFFFF"/>
        <path d="M600.5,550 L648.5,550 L648.5,622 L600.5,622 L600.5,550 z" fill-opacity="0" stroke="#000000" stroke-width="4"/>
      </g>
      <g>
        <path d="M648.5,550 L696.5,550 L696.5,622 L648.5,622 L648.5,550 z" fill="#FFFFFF"/>
        <path d="M648.5,550 L696.5,550 L696.5,622 L648.5,622 L648.5,550 z" fill-opacity="0" stroke="#000000" stroke-width="4"/>
      </g>
      <g>
        <path d="M696.5,550 L744.5,550 L744.5,622 L696.5,622 L696.5,550 z" fill="#FFFFFF"/>
        <path d="M696.5,550 L744.5,550 L744.5,622 L696.5,622 L696.5,550 z" fill-opacity="0" stroke="#000000" stroke-width="4"/>
      </g>
      <g>
        <path d="M744.5,550 L792.5,550 L792.5,622 L744.5,622 L744.5,550 z" fill="#FFFFFF"/>
        <path d="M744.5,550 L792.5,550 L792.5,622 L744.5,622 L744.5,550 z" fill-opacity="0" stroke="#000000" stroke-width="4"/>
      </g>
      <g>
        <path d="M792.5,550 L840.5,550 L840.5,622 L792.5,622 L792.5,550 z" fill="#FFFFFF"/>
        <path d="M792.5,550 L840.5,550 L840.5,622 L792.5,622 L792.5,550 z" fill-opacity="0" stroke="#000000" stroke-width="4"/>
      </g>
    </g>
    <g>
      <text transform="matrix(1, 0, 0, 1, 488.511, 525.5)">
        <tspan x="-32.511" y="11.5" font-family="Menlo-Bold" font-size="36" fill="#FFFFFF">MSB</tspan>
      </text>
      <path d="M457.512,510.756 L463.699,510.756 L466.828,522.27 L469.939,510.756 L476.162,510.756 L476.162,537 L471.697,537 L471.697,515.977 L468.92,527.455 L464.789,527.455 L461.977,515.977 L461.977,537 L457.512,537 z M486.639,525.486 Q482.719,523.992 481.33,522.349 Q479.941,520.705 479.941,517.928 Q479.941,514.359 482.227,512.32 Q484.512,510.281 488.502,510.281 Q490.312,510.281 492.123,510.694 Q493.934,511.107 495.709,511.916 L495.709,516.979 Q494.039,515.801 492.316,515.186 Q490.594,514.57 488.906,514.57 Q487.025,514.57 486.023,515.326 Q485.021,516.082 485.021,517.488 Q485.021,518.578 485.751,519.29 Q486.48,520.002 488.801,520.863 L491.033,521.707 Q494.197,522.867 495.691,524.783 Q497.186,526.699 497.186,529.617 Q497.186,533.59 494.839,535.55 Q492.492,537.51 487.746,537.51 Q485.795,537.51 483.835,537.044 Q481.875,536.578 480.047,535.664 L480.047,530.303 Q482.121,531.779 484.063,532.5 Q486.006,533.221 487.904,533.221 Q489.82,533.221 490.875,532.351 Q491.93,531.48 491.93,529.916 Q491.93,528.738 491.227,527.851 Q490.523,526.963 489.188,526.453 z M506.555,525.082 L506.555,532.852 L510,532.852 Q512.479,532.852 513.472,532.008 Q514.465,531.164 514.465,529.072 Q514.465,526.945 513.428,526.014 Q512.391,525.082 510,525.082 z M506.555,514.852 L506.555,520.951 L510,520.951 Q511.969,520.951 512.804,520.248 Q513.639,519.545 513.639,517.928 Q513.639,516.311 512.786,515.581 Q511.934,514.852 510,514.852 z M501.545,510.721 L510,510.721 Q514.377,510.721 516.583,512.382 Q518.789,514.043 518.789,517.348 Q518.789,519.879 517.488,521.303 Q516.188,522.727 513.674,522.955 Q516.68,523.254 518.2,524.977 Q519.721,526.699 519.721,529.793 Q519.721,533.59 517.436,535.295 Q515.15,537 510,537 L501.545,537 z" fill="#000000"/>
    </g>
    <g>
      <text transform="matrix(1, 0, 0, 1, 812.511, 525.5)">
        <tspan x="-32.511" y="11.5" font-family="Menlo-Bold" font-size="36" fill="#FFFFFF">LSB</tspan>
      </text>
      <path d="M783.955,537 L783.955,510.756 L789.141,510.756 L789.141,532.43 L800.232,532.43 L800.232,537 z M810.639,525.486 Q806.719,523.992 805.33,522.349 Q803.941,520.705 803.941,517.928 Q803.941,514.359 806.227,512.32 Q808.512,510.281 812.502,510.281 Q814.312,510.281 816.123,510.694 Q817.934,511.107 819.709,511.916 L819.709,516.979 Q818.039,515.801 816.316,515.186 Q814.594,514.57 812.906,514.57 Q811.025,514.57 810.023,515.326 Q809.021,516.082 809.021,517.488 Q809.021,518.578 809.751,519.29 Q810.48,520.002 812.801,520.863 L815.033,521.707 Q818.197,522.867 819.691,524.783 Q821.186,526.699 821.186,529.617 Q821.186,533.59 818.839,535.55 Q816.492,537.51 811.746,537.51 Q809.795,537.51 807.835,537.044 Q805.875,536.578 804.047,535.664 L804.047,530.303 Q806.121,531.779 808.063,532.5 Q810.006,533.221 811.904,533.221 Q813.82,533.221 814.875,532.351 Q815.93,531.48 815.93,529.916 Q815.93,528.738 815.227,527.851 Q814.523,526.963 813.188,526.453 z M830.555,525.082 L830.555,532.852 L834,532.852 Q836.479,532.852 837.472,532.008 Q838.465,531.164 838.465,529.072 Q838.465,526.945 837.428,526.014 Q836.391,525.082 834,525.082 z M830.555,514.852 L830.555,520.951 L834,520.951 Q835.969,520.951 836.804,520.248 Q837.639,519.545 837.639,517.928 Q837.639,516.311 836.786,515.581 Q835.934,514.852 834,514.852 z M825.545,510.721 L834,510.721 Q838.377,510.721 840.583,512.382 Q842.789,514.043 842.789,517.348 Q842.789,519.879 841.488,521.303 Q840.188,522.727 837.674,522.955 Q840.68,523.254 842.2,524.977 Q843.721,526.699 843.721,529.793 Q843.721,533.59 841.436,535.295 Q839.15,537 834,537 L825.545,537 z" fill="#000000"/>
    </g>
    <g>
      <g>
        <path d="M264.5,550 L336.5,550 L336.5,622 L264.5,622 L264.5,550 z" fill="#FFFFFF"/>
        <path d="M264.5,550 L336.5,550 L336.5,622 L264.5,622 L264.5,550 z" fill-opacity="0" stroke="#000000" stroke-width="4"/>
      </g>
      <g>
        <text transform="matrix(1, 0, 0, 1, 300, 585.5)">
          <tspan x="-18.062" y="20" font-family="Menlo-Bold" font-size="60" fill="#FFFFFF">C</tspan>
        </text>
        <path d="M313.608,604.24 Q311.558,605.295 309.302,605.822 Q307.046,606.35 304.556,606.35 Q295.708,606.35 291.05,600.52 Q286.392,594.689 286.392,583.674 Q286.392,572.629 291.05,566.799 Q295.708,560.969 304.556,560.969 Q307.046,560.969 309.331,561.496 Q311.616,562.023 313.608,563.078 L313.608,572.688 Q311.382,570.637 309.287,569.685 Q307.192,568.732 304.966,568.732 Q300.22,568.732 297.803,572.497 Q295.386,576.262 295.386,583.674 Q295.386,591.057 297.803,594.821 Q300.22,598.586 304.966,598.586 Q307.192,598.586 309.287,597.634 Q311.382,596.682 313.608,594.631 z" fill="#000000"/>
      </g>
    </g>
    <g>
      <text transform="matrix(1, 0, 0, 1, 85.918, 585.5)">
        <tspan x="-54.185" y="17.5" font-family="Menlo-Bold" font-size="60" fill="#FFFFFF">LSR</tspan>
      </text>
      <path d="M38.326,603 L38.326,559.26 L46.968,559.26 L46.968,595.383 L65.455,595.383 L65.455,603 z M82.798,583.811 Q76.265,581.32 73.951,578.581 Q71.636,575.842 71.636,571.213 Q71.636,565.266 75.445,561.867 Q79.253,558.469 85.904,558.469 Q88.921,558.469 91.939,559.157 Q94.957,559.846 97.916,561.193 L97.916,569.631 Q95.132,567.668 92.261,566.643 Q89.39,565.617 86.578,565.617 Q83.443,565.617 81.773,566.877 Q80.103,568.137 80.103,570.48 Q80.103,572.297 81.319,573.483 Q82.535,574.67 86.402,576.105 L90.123,577.512 Q95.396,579.445 97.886,582.639 Q100.376,585.832 100.376,590.695 Q100.376,597.316 96.465,600.583 Q92.554,603.85 84.644,603.85 Q81.392,603.85 78.125,603.073 Q74.859,602.297 71.812,600.773 L71.812,591.838 Q75.269,594.299 78.506,595.5 Q81.744,596.701 84.908,596.701 Q88.101,596.701 89.859,595.251 Q91.617,593.801 91.617,591.193 Q91.617,589.23 90.445,587.751 Q89.273,586.271 87.046,585.422 z M127.623,582.346 Q128.912,582.609 129.864,583.562 Q130.816,584.514 132.193,587.268 L140.103,603 L130.611,603 L125.337,591.955 Q125.103,591.486 124.722,590.666 Q122.408,585.715 119.273,585.715 L116.519,585.715 L116.519,603 L107.876,603 L107.876,559.26 L120.357,559.26 Q128.794,559.26 132.471,562.248 Q136.148,565.236 136.148,571.975 Q136.148,576.486 133.951,579.152 Q131.753,581.818 127.623,582.346 z M116.519,566.525 L116.519,578.449 L120.591,578.449 Q124.136,578.449 125.674,577.058 Q127.212,575.666 127.212,572.473 Q127.212,569.279 125.689,567.902 Q124.166,566.525 120.591,566.525 z" fill="#000000"/>
    </g>
    <g>
      <text transform="matrix(1, 0, 0, 1, 371.418, 585.5)">
        <tspan x="-18.062" y="20" font-family="Menlo-Bold" font-size="60" fill="#FFFFFF">0</tspan>
      </text>
      <path d="M356.96,583.674 Q356.96,572.307 360.564,566.638 Q364.167,560.969 371.404,560.969 Q378.669,560.969 382.273,566.623 Q385.876,572.277 385.876,583.674 Q385.876,595.041 382.273,600.695 Q378.669,606.35 371.404,606.35 Q364.167,606.35 360.564,600.681 Q356.96,595.012 356.96,583.674 z M367.039,595.363 Q368.416,599.025 371.404,599.025 Q374.421,599.025 375.798,595.363 Q377.175,591.701 377.175,583.674 Q377.175,580.627 376.97,578.225 L366.746,594.514 Q366.892,594.982 367.039,595.363 z M371.404,568.293 Q368.416,568.293 367.039,571.955 Q365.662,575.617 365.662,583.674 Q365.662,586.164 365.779,588.215 L375.857,572.131 Q375.828,572.043 375.798,571.955 Q374.421,568.293 371.404,568.293 z" fill="#000000"/>
    </g>
    <g>
      <path d="M180.5,586 L224.1,586" fill-opacity="0" stroke="#000000" stroke-width="4"/>
      <path d="M224.1,590.8 L236.9,586 L224.1,581.2 z" fill="#000000" fill-opacity="1" stroke="#000000" stroke-width="4" stroke-opacity="1"/>
    </g>
    <g>
      <path d="M396.5,586 L416.1,586" fill-opacity="0" stroke="#000000" stroke-width="4"/>
      <path d="M416.1,590.8 L428.9,586 L416.1,581.2 z" fill="#000000" fill-opacity="1" stroke="#000000" stroke-width="4" stroke-opacity="1"/>
    </g>
    <path d="M180.5,586 L180.5,480.5" fill-opacity="0" stroke="#000000" stroke-width="4"/>
    <path d="M180.5,480.5 L972.5,480.5" fill-opacity="0" stroke="#000000" stroke-width="4"/>
    <path d="M972.5,480.5 L972.5,586" fill-opacity="0" stroke="#000000" stroke-width="4"/>
    <path d="M972.5,586 L840.5,586" fill-opacity="0" stroke="#000000" stroke-width="4"/>
  </g>
</svg>
