<?xml version="1.0" encoding="UTF-8"?>
<!DOCTYPE svg PUBLIC "-//W3C//DTD SVG 1.1//EN" "http://www.w3.org/Graphics/SVG/1.1/DTD/svg11.dtd">
<svg version="1.1" xmlns="http://www.w3.org/2000/svg" xmlns:xlink="http://www.w3.org/1999/xlink" x="0" y="0" width="296.7" height="47.85" viewBox="0, 0, 989, 159.5">
  <g id="Layer_1" transform="translate(-0, -279)">
    <g>
      <g>
        <path d="M456.5,358 L504.5,358 L504.5,430 L456.5,430 L456.5,358 z" fill="#FFFFFF"/>
        <path d="M456.5,358 L504.5,358 L504.5,430 L456.5,430 L456.5,358 z" fill-opacity="0" stroke="#000000" stroke-width="4"/>
      </g>
      <g>
        <path d="M504.5,358 L552.5,358 L552.5,430 L504.5,430 L504.5,358 z" fill="#FFFFFF"/>
        <path d="M504.5,358 L552.5,358 L552.5,430 L504.5,430 L504.5,358 z" fill-opacity="0" stroke="#000000" stroke-width="4"/>
      </g>
      <g>
        <path d="M552.5,358 L600.5,358 L600.5,430 L552.5,430 L552.5,358 z" fill="#FFFFFF"/>
        <path d="M552.5,358 L600.5,358 L600.5,430 L552.5,430 L552.5,358 z" fill-opacity="0" stroke="#000000" stroke-width="4"/>
      </g>
      <g>
        <path d="M600.5,358 L648.5,358 L648.5,430 L600.5,430 L600.5,358 z" fill="#FFFFFF"/>
        <path d="M600.5,358 L648.5,358 L648.5,430 L600.5,430 L600.5,358 z" fill-opacity="0" stroke="#000000" stroke-width="4"/>
      </g>
      <g>
        <path d="M648.5,358 L696.5,358 L696.5,430 L648.5,430 L648.5,358 z" fill="#FFFFFF"/>
        <path d="M648.5,358 L696.5,358 L696.5,430 L648.5,430 L648.5,358 z" fill-opacity="0" stroke="#000000" stroke-width="4"/>
      </g>
      <g>
        <path d="M696.5,358 L744.5,358 L744.5,430 L696.5,430 L696.5,358 z" fill="#FFFFFF"/>
        <path d="M696.5,358 L744.5,358 L744.5,430 L696.5,430 L696.5,358 z" fill-opacity="0" stroke="#000000" stroke-width="4"/>
      </g>
      <g>
        <path d="M744.5,358 L792.5,358 L792.5,430 L744.5,430 L744.5,358 z" fill="#FFFFFF"/>
        <path d="M744.5,358 L792.5,358 L792.5,430 L744.5,430 L744.5,358 z" fill-opacity="0" stroke="#000000" stroke-width="4"/>
      </g>
      <g>
        <path d="M792.5,358 L840.5,358 L840.5,430 L792.5,430 L792.5,358 z" fill="#FFFFFF"/>
        <path d="M792.5,358 L840.5,358 L840.5,430 L792.5,430 L792.5,358 z" fill-opacity="0" stroke="#000000" stroke-width="4"/>
      </g>
    </g>
    <g>
      <text transform="matrix(1, 0, 0, 1, 488.511, 333.5)">
        <tspan x="-32.511" y="11.5" font-family="Menlo-Bold" font-size="36" fill="#FFFFFF">MSB</tspan>
      </text>
      <path d="M457.512,318.756 L463.699,318.756 L466.828,330.27 L469.939,318.756 L476.162,318.756 L476.162,345 L471.697,345 L471.697,323.977 L468.92,335.455 L464.789,335.455 L461.977,323.977 L461.977,345 L457.512,345 z M486.639,333.486 Q482.719,331.992 481.33,330.349 Q479.941,328.705 479.941,325.928 Q479.941,322.359 482.227,320.32 Q484.512,318.281 488.502,318.281 Q490.312,318.281 492.123,318.694 Q493.934,319.107 495.709,319.916 L495.709,324.979 Q494.039,323.801 492.316,323.186 Q490.594,322.57 488.906,322.57 Q487.025,322.57 486.023,323.326 Q485.021,324.082 485.021,325.488 Q485.021,326.578 485.751,327.29 Q486.48,328.002 488.801,328.863 L491.033,329.707 Q494.197,330.867 495.691,332.783 Q497.186,334.699 497.186,337.617 Q497.186,341.59 494.839,343.55 Q492.492,345.51 487.746,345.51 Q485.795,345.51 483.835,345.044 Q481.875,344.578 480.047,343.664 L480.047,338.303 Q482.121,339.779 484.063,340.5 Q486.006,341.221 487.904,341.221 Q489.82,341.221 490.875,340.351 Q491.93,339.48 491.93,337.916 Q491.93,336.738 491.227,335.851 Q490.523,334.963 489.188,334.453 z M506.555,333.082 L506.555,340.852 L510,340.852 Q512.479,340.852 513.472,340.008 Q514.465,339.164 514.465,337.072 Q514.465,334.945 513.428,334.014 Q512.391,333.082 510,333.082 z M506.555,322.852 L506.555,328.951 L510,328.951 Q511.969,328.951 512.804,328.248 Q513.639,327.545 513.639,325.928 Q513.639,324.311 512.786,323.581 Q511.934,322.852 510,322.852 z M501.545,318.721 L510,318.721 Q514.377,318.721 516.583,320.382 Q518.789,322.043 518.789,325.348 Q518.789,327.879 517.488,329.303 Q516.188,330.727 513.674,330.955 Q516.68,331.254 518.2,332.977 Q519.721,334.699 519.721,337.793 Q519.721,341.59 517.436,343.295 Q515.15,345 510,345 L501.545,345 z" fill="#000000"/>
    </g>
    <g>
      <text transform="matrix(1, 0, 0, 1, 812.511, 333.5)">
        <tspan x="-32.511" y="11.5" font-family="Menlo-Bold" font-size="36" fill="#FFFFFF">LSB</tspan>
      </text>
      <path d="M783.955,345 L783.955,318.756 L789.141,318.756 L789.141,340.43 L800.232,340.43 L800.232,345 z M810.639,333.486 Q806.719,331.992 805.33,330.349 Q803.941,328.705 803.941,325.928 Q803.941,322.359 806.227,320.32 Q808.512,318.281 812.502,318.281 Q814.312,318.281 816.123,318.694 Q817.934,319.107 819.709,319.916 L819.709,324.979 Q818.039,323.801 816.316,323.186 Q814.594,322.57 812.906,322.57 Q811.025,322.57 810.023,323.326 Q809.021,324.082 809.021,325.488 Q809.021,326.578 809.751,327.29 Q810.48,328.002 812.801,328.863 L815.033,329.707 Q818.197,330.867 819.691,332.783 Q821.186,334.699 821.186,337.617 Q821.186,341.59 818.839,343.55 Q816.492,345.51 811.746,345.51 Q809.795,345.51 807.835,345.044 Q805.875,344.578 804.047,343.664 L804.047,338.303 Q806.121,339.779 808.063,340.5 Q810.006,341.221 811.904,341.221 Q813.82,341.221 814.875,340.351 Q815.93,339.48 815.93,337.916 Q815.93,336.738 815.227,335.851 Q814.523,334.963 813.188,334.453 z M830.555,333.082 L830.555,340.852 L834,340.852 Q836.479,340.852 837.472,340.008 Q838.465,339.164 838.465,337.072 Q838.465,334.945 837.428,334.014 Q836.391,333.082 834,333.082 z M830.555,322.852 L830.555,328.951 L834,328.951 Q835.969,328.951 836.804,328.248 Q837.639,327.545 837.639,325.928 Q837.639,324.311 836.786,323.581 Q835.934,322.852 834,322.852 z M825.545,318.721 L834,318.721 Q838.377,318.721 840.583,320.382 Q842.789,322.043 842.789,325.348 Q842.789,327.879 841.488,329.303 Q840.188,330.727 837.674,330.955 Q840.68,331.254 842.2,332.977 Q843.721,334.699 843.721,337.793 Q843.721,341.59 841.436,343.295 Q839.15,345 834,345 L825.545,345 z" fill="#000000"/>
    </g>
    <g>
      <g>
        <path d="M264.5,358 L336.5,358 L336.5,430 L264.5,430 L264.5,358 z" fill="#FFFFFF"/>
        <path d="M264.5,358 L336.5,358 L336.5,430 L264.5,430 L264.5,358 z" fill-opacity="0" stroke="#000000" stroke-width="4"/>
      </g>
      <g>
        <text transform="matrix(1, 0, 0, 1, 300, 393.5)">
          <tspan x="-18.062" y="20" font-family="Menlo-Bold" font-size="60" fill="#FFFFFF">C</tspan>
        </text>
        <path d="M313.608,412.24 Q311.558,413.295 309.302,413.822 Q307.046,414.35 304.556,414.35 Q295.708,414.35 291.05,408.52 Q286.392,402.689 286.392,391.674 Q286.392,380.629 291.05,374.799 Q295.708,368.969 304.556,368.969 Q307.046,368.969 309.331,369.496 Q311.616,370.023 313.608,371.078 L313.608,380.688 Q311.382,378.637 309.287,377.685 Q307.192,376.732 304.966,376.732 Q300.22,376.732 297.803,380.497 Q295.386,384.262 295.386,391.674 Q295.386,399.057 297.803,402.821 Q300.22,406.586 304.966,406.586 Q307.192,406.586 309.287,405.634 Q311.382,404.682 313.608,402.631 z" fill="#000000"/>
      </g>
    </g>
    <g>
      <text transform="matrix(1, 0, 0, 1, 85.918, 393.5)">
        <tspan x="-54.185" y="17.5" font-family="Menlo-Bold" font-size="60" fill="#FFFFFF">ROL</tspan>
      </text>
      <path d="M55.376,390.346 Q56.666,390.609 57.618,391.562 Q58.57,392.514 59.947,395.268 L67.857,411 L58.365,411 L53.091,399.955 Q52.857,399.486 52.476,398.666 Q50.162,393.715 47.027,393.715 L44.273,393.715 L44.273,411 L35.63,411 L35.63,367.26 L48.111,367.26 Q56.548,367.26 60.225,370.248 Q63.902,373.236 63.902,379.975 Q63.902,384.486 61.705,387.152 Q59.507,389.818 55.376,390.346 z M44.273,374.525 L44.273,386.449 L48.345,386.449 Q51.89,386.449 53.428,385.058 Q54.966,383.666 54.966,380.473 Q54.966,377.279 53.443,375.902 Q51.919,374.525 48.345,374.525 z M85.904,374.232 Q82.593,374.232 81.07,377.763 Q79.546,381.293 79.546,389.174 Q79.546,397.025 81.07,400.556 Q82.593,404.086 85.904,404.086 Q89.244,404.086 90.767,400.556 Q92.291,397.025 92.291,389.174 Q92.291,381.293 90.767,377.763 Q89.244,374.232 85.904,374.232 z M70.552,389.174 Q70.552,377.953 74.434,372.211 Q78.316,366.469 85.904,366.469 Q93.521,366.469 97.403,372.211 Q101.285,377.953 101.285,389.174 Q101.285,400.365 97.403,406.107 Q93.521,411.85 85.904,411.85 Q78.316,411.85 74.434,406.107 Q70.552,400.365 70.552,389.174 z M110.572,411 L110.572,367.26 L119.214,367.26 L119.214,403.383 L137.701,403.383 L137.701,411 z" fill="#000000"/>
    </g>
    <path d="M180.5,394 L180.5,288.5" fill-opacity="0" stroke="#000000" stroke-width="4"/>
    <path d="M180.5,288.5 L972.5,288.5" fill-opacity="0" stroke="#000000" stroke-width="4"/>
    <path d="M972.5,288.5 L972.5,394" fill-opacity="0" stroke="#000000" stroke-width="4"/>
    <path d="M180.5,394 L264.5,394" fill-opacity="0" stroke="#000000" stroke-width="4"/>
    <g>
      <path d="M972.5,394 L880.9,394" fill-opacity="0" stroke="#000000" stroke-width="4"/>
      <path d="M880.9,389.2 L868.1,394 L880.9,398.8 z" fill="#000000" fill-opacity="1" stroke="#000000" stroke-width="4" stroke-opacity="1"/>
    </g>
    <g>
      <path d="M432.5,394 L376.9,394" fill-opacity="0" stroke="#000000" stroke-width="4"/>
      <path d="M376.9,389.2 L364.1,394 L376.9,398.8 z" fill="#000000" fill-opacity="1" stroke="#000000" stroke-width="4" stroke-opacity="1"/>
    </g>
  </g>
</svg>
