<?xml version="1.0" encoding="UTF-8"?>
<!DOCTYPE svg PUBLIC "-//W3C//DTD SVG 1.1//EN" "http://www.w3.org/Graphics/SVG/1.1/DTD/svg11.dtd">
<svg version="1.1" xmlns="http://www.w3.org/2000/svg" xmlns:xlink="http://www.w3.org/1999/xlink" x="0" y="0" width="294.3" height="47.85" viewBox="0, 0, 981, 159.5">
  <g id="Layer_1" transform="translate(12, -87)">
    <g>
      <g>
        <path d="M444.5,166 L492.5,166 L492.5,238 L444.5,238 L444.5,166 z" fill="#FFFFFF"/>
        <path d="M444.5,166 L492.5,166 L492.5,238 L444.5,238 L444.5,166 z" fill-opacity="0" stroke="#000000" stroke-width="4"/>
      </g>
      <g>
        <path d="M492.5,166 L540.5,166 L540.5,238 L492.5,238 L492.5,166 z" fill="#FFFFFF"/>
        <path d="M492.5,166 L540.5,166 L540.5,238 L492.5,238 L492.5,166 z" fill-opacity="0" stroke="#000000" stroke-width="4"/>
      </g>
      <g>
        <path d="M540.5,166 L588.5,166 L588.5,238 L540.5,238 L540.5,166 z" fill="#FFFFFF"/>
        <path d="M540.5,166 L588.5,166 L588.5,238 L540.5,238 L540.5,166 z" fill-opacity="0" stroke="#000000" stroke-width="4"/>
      </g>
      <g>
        <path d="M588.5,166 L636.5,166 L636.5,238 L588.5,238 L588.5,166 z" fill="#FFFFFF"/>
        <path d="M588.5,166 L636.5,166 L636.5,238 L588.5,238 L588.5,166 z" fill-opacity="0" stroke="#000000" stroke-width="4"/>
      </g>
      <g>
        <path d="M636.5,166 L684.5,166 L684.5,238 L636.5,238 L636.5,166 z" fill="#FFFFFF"/>
        <path d="M636.5,166 L684.5,166 L684.5,238 L636.5,238 L636.5,166 z" fill-opacity="0" stroke="#000000" stroke-width="4"/>
      </g>
      <g>
        <path d="M684.5,166 L732.5,166 L732.5,238 L684.5,238 L684.5,166 z" fill="#FFFFFF"/>
        <path d="M684.5,166 L732.5,166 L732.5,238 L684.5,238 L684.5,166 z" fill-opacity="0" stroke="#000000" stroke-width="4"/>
      </g>
      <g>
        <path d="M732.5,166 L780.5,166 L780.5,238 L732.5,238 L732.5,166 z" fill="#FFFFFF"/>
        <path d="M732.5,166 L780.5,166 L780.5,238 L732.5,238 L732.5,166 z" fill-opacity="0" stroke="#000000" stroke-width="4"/>
      </g>
      <g>
        <path d="M780.5,166 L828.5,166 L828.5,238 L780.5,238 L780.5,166 z" fill="#FFFFFF"/>
        <path d="M780.5,166 L828.5,166 L828.5,238 L780.5,238 L780.5,166 z" fill-opacity="0" stroke="#000000" stroke-width="4"/>
      </g>
    </g>
    <g>
      <text transform="matrix(1, 0, 0, 1, 476.511, 141.5)">
        <tspan x="-32.511" y="11.5" font-family="Menlo-Bold" font-size="36" fill="#FFFFFF">MSB</tspan>
      </text>
      <path d="M445.512,126.756 L451.699,126.756 L454.828,138.27 L457.939,126.756 L464.162,126.756 L464.162,153 L459.697,153 L459.697,131.977 L456.92,143.455 L452.789,143.455 L449.977,131.977 L449.977,153 L445.512,153 z M474.639,141.486 Q470.719,139.992 469.33,138.349 Q467.941,136.705 467.941,133.928 Q467.941,130.359 470.227,128.32 Q472.512,126.281 476.502,126.281 Q478.312,126.281 480.123,126.694 Q481.934,127.107 483.709,127.916 L483.709,132.979 Q482.039,131.801 480.316,131.186 Q478.594,130.57 476.906,130.57 Q475.025,130.57 474.023,131.326 Q473.021,132.082 473.021,133.488 Q473.021,134.578 473.751,135.29 Q474.48,136.002 476.801,136.863 L479.033,137.707 Q482.197,138.867 483.691,140.783 Q485.186,142.699 485.186,145.617 Q485.186,149.59 482.839,151.55 Q480.492,153.51 475.746,153.51 Q473.795,153.51 471.835,153.044 Q469.875,152.578 468.047,151.664 L468.047,146.303 Q470.121,147.779 472.063,148.5 Q474.006,149.221 475.904,149.221 Q477.82,149.221 478.875,148.351 Q479.93,147.48 479.93,145.916 Q479.93,144.738 479.227,143.851 Q478.523,142.963 477.188,142.453 z M494.555,141.082 L494.555,148.852 L498,148.852 Q500.479,148.852 501.472,148.008 Q502.465,147.164 502.465,145.072 Q502.465,142.945 501.428,142.014 Q500.391,141.082 498,141.082 z M494.555,130.852 L494.555,136.951 L498,136.951 Q499.969,136.951 500.804,136.248 Q501.639,135.545 501.639,133.928 Q501.639,132.311 500.786,131.581 Q499.934,130.852 498,130.852 z M489.545,126.721 L498,126.721 Q502.377,126.721 504.583,128.382 Q506.789,130.043 506.789,133.348 Q506.789,135.879 505.488,137.303 Q504.188,138.727 501.674,138.955 Q504.68,139.254 506.2,140.977 Q507.721,142.699 507.721,145.793 Q507.721,149.59 505.436,151.295 Q503.15,153 498,153 L489.545,153 z" fill="#000000"/>
    </g>
    <g>
      <text transform="matrix(1, 0, 0, 1, 800.511, 141.5)">
        <tspan x="-32.511" y="11.5" font-family="Menlo-Bold" font-size="36" fill="#FFFFFF">LSB</tspan>
      </text>
      <path d="M771.955,153 L771.955,126.756 L777.141,126.756 L777.141,148.43 L788.232,148.43 L788.232,153 z M798.639,141.486 Q794.719,139.992 793.33,138.349 Q791.941,136.705 791.941,133.928 Q791.941,130.359 794.227,128.32 Q796.512,126.281 800.502,126.281 Q802.312,126.281 804.123,126.694 Q805.934,127.107 807.709,127.916 L807.709,132.979 Q806.039,131.801 804.316,131.186 Q802.594,130.57 800.906,130.57 Q799.025,130.57 798.023,131.326 Q797.021,132.082 797.021,133.488 Q797.021,134.578 797.751,135.29 Q798.48,136.002 800.801,136.863 L803.033,137.707 Q806.197,138.867 807.691,140.783 Q809.186,142.699 809.186,145.617 Q809.186,149.59 806.839,151.55 Q804.492,153.51 799.746,153.51 Q797.795,153.51 795.835,153.044 Q793.875,152.578 792.047,151.664 L792.047,146.303 Q794.121,147.779 796.063,148.5 Q798.006,149.221 799.904,149.221 Q801.82,149.221 802.875,148.351 Q803.93,147.48 803.93,145.916 Q803.93,144.738 803.227,143.851 Q802.523,142.963 801.188,142.453 z M818.555,141.082 L818.555,148.852 L822,148.852 Q824.479,148.852 825.472,148.008 Q826.465,147.164 826.465,145.072 Q826.465,142.945 825.428,142.014 Q824.391,141.082 822,141.082 z M818.555,130.852 L818.555,136.951 L822,136.951 Q823.969,136.951 824.804,136.248 Q825.639,135.545 825.639,133.928 Q825.639,132.311 824.786,131.581 Q823.934,130.852 822,130.852 z M813.545,126.721 L822,126.721 Q826.377,126.721 828.583,128.382 Q830.789,130.043 830.789,133.348 Q830.789,135.879 829.488,137.303 Q828.188,138.727 825.674,138.955 Q828.68,139.254 830.2,140.977 Q831.721,142.699 831.721,145.793 Q831.721,149.59 829.436,151.295 Q827.15,153 822,153 L813.545,153 z" fill="#000000"/>
    </g>
    <g>
      <g>
        <path d="M252.5,166 L324.5,166 L324.5,238 L252.5,238 L252.5,166 z" fill="#FFFFFF"/>
        <path d="M252.5,166 L324.5,166 L324.5,238 L252.5,238 L252.5,166 z" fill-opacity="0" stroke="#000000" stroke-width="4"/>
      </g>
      <g>
        <text transform="matrix(1, 0, 0, 1, 288, 201.5)">
          <tspan x="-18.062" y="20" font-family="Menlo-Bold" font-size="60" fill="#FFFFFF">C</tspan>
        </text>
        <path d="M301.608,220.24 Q299.558,221.295 297.302,221.822 Q295.046,222.35 292.556,222.35 Q283.708,222.35 279.05,216.52 Q274.392,210.689 274.392,199.674 Q274.392,188.629 279.05,182.799 Q283.708,176.969 292.556,176.969 Q295.046,176.969 297.331,177.496 Q299.616,178.023 301.608,179.078 L301.608,188.688 Q299.382,186.637 297.287,185.685 Q295.192,184.732 292.966,184.732 Q288.22,184.732 285.803,188.497 Q283.386,192.262 283.386,199.674 Q283.386,207.057 285.803,210.821 Q288.22,214.586 292.966,214.586 Q295.192,214.586 297.287,213.634 Q299.382,212.682 301.608,210.631 z" fill="#000000"/>
      </g>
    </g>
    <g>
      <text transform="matrix(1, 0, 0, 1, 73.918, 201.5)">
        <tspan x="-54.185" y="17.5" font-family="Menlo-Bold" font-size="60" fill="#FFFFFF">ROR</tspan>
      </text>
      <path d="M43.376,198.346 Q44.666,198.609 45.618,199.562 Q46.57,200.514 47.947,203.268 L55.857,219 L46.365,219 L41.091,207.955 Q40.857,207.486 40.476,206.666 Q38.162,201.715 35.027,201.715 L32.273,201.715 L32.273,219 L23.63,219 L23.63,175.26 L36.111,175.26 Q44.548,175.26 48.225,178.248 Q51.902,181.236 51.902,187.975 Q51.902,192.486 49.705,195.152 Q47.507,197.818 43.376,198.346 z M32.273,182.525 L32.273,194.449 L36.345,194.449 Q39.89,194.449 41.428,193.058 Q42.966,191.666 42.966,188.473 Q42.966,185.279 41.443,183.902 Q39.919,182.525 36.345,182.525 z M73.904,182.232 Q70.593,182.232 69.07,185.763 Q67.546,189.293 67.546,197.174 Q67.546,205.025 69.07,208.556 Q70.593,212.086 73.904,212.086 Q77.244,212.086 78.767,208.556 Q80.291,205.025 80.291,197.174 Q80.291,189.293 78.767,185.763 Q77.244,182.232 73.904,182.232 z M58.552,197.174 Q58.552,185.953 62.434,180.211 Q66.316,174.469 73.904,174.469 Q81.521,174.469 85.403,180.211 Q89.285,185.953 89.285,197.174 Q89.285,208.365 85.403,214.107 Q81.521,219.85 73.904,219.85 Q66.316,219.85 62.434,214.107 Q58.552,208.365 58.552,197.174 z M115.623,198.346 Q116.912,198.609 117.864,199.562 Q118.816,200.514 120.193,203.268 L128.103,219 L118.611,219 L113.337,207.955 Q113.103,207.486 112.722,206.666 Q110.408,201.715 107.273,201.715 L104.519,201.715 L104.519,219 L95.876,219 L95.876,175.26 L108.357,175.26 Q116.794,175.26 120.471,178.248 Q124.148,181.236 124.148,187.975 Q124.148,192.486 121.951,195.152 Q119.753,197.818 115.623,198.346 z M104.519,182.525 L104.519,194.449 L108.591,194.449 Q112.136,194.449 113.674,193.058 Q115.212,191.666 115.212,188.473 Q115.212,185.279 113.689,183.902 Q112.166,182.525 108.591,182.525 z" fill="#000000"/>
    </g>
    <g>
      <path d="M168.5,202 L212.1,202" fill-opacity="0" stroke="#000000" stroke-width="4"/>
      <path d="M212.1,206.8 L224.9,202 L212.1,197.2 z" fill="#000000" fill-opacity="1" stroke="#000000" stroke-width="4" stroke-opacity="1"/>
    </g>
    <g>
      <path d="M348.5,202 L404.1,202" fill-opacity="0" stroke="#000000" stroke-width="4"/>
      <path d="M404.1,206.8 L416.9,202 L404.1,197.2 z" fill="#000000" fill-opacity="1" stroke="#000000" stroke-width="4" stroke-opacity="1"/>
    </g>
    <path d="M168.5,202 L168.5,96.5" fill-opacity="0" stroke="#000000" stroke-width="4"/>
    <path d="M168.5,96.5 L960.5,96.5" fill-opacity="0" stroke="#000000" stroke-width="4"/>
    <path d="M960.5,96.5 L960.5,202" fill-opacity="0" stroke="#000000" stroke-width="4"/>
    <path d="M960.5,202 L828.5,202" fill-opacity="0" stroke="#000000" stroke-width="4"/>
  </g>
</svg>
